<?xml version="1.0" encoding="UTF-8"?>
<svg id="Layer_1" data-name="Layer 1" xmlns="http://www.w3.org/2000/svg" viewBox="0 0 42.67 42.67">
  <rect x=".08" y=".08" width="42.52" height="42.52" fill="#231f20" stroke="#231f20" stroke-width=".15"/>
  <path d="M16.91,20.5v-3.58h-.05c-1.38,2.52-3.42,3.78-6.14,3.78-1.38,0-2.61-.32-3.7-.96-1.09-.64-1.89-1.46-2.42-2.45-.55-1.02-.82-2.66-.82-4.91v-7.95c0-.8-.16-1.41-.48-1.83-.32-.41-.94-.62-1.85-.62v-.37h8.87v.37c-.97,0-1.61.22-1.9.67-.29.44-.44,1.04-.44,1.78v8.42c0,1.24.15,2.22.45,2.94.21.52.51.97.9,1.35.39.38.84.66,1.36.86.52.2,1.06.29,1.62.29s1.15-.1,1.69-.31c.54-.21,1.02-.51,1.46-.9.43-.39.76-.84.98-1.33.31-.73.46-1.88.46-3.43v-7.87c0-.9-.18-1.53-.54-1.91-.36-.38-.96-.56-1.79-.56v-.35h8.87v.37c-.97,0-1.6.22-1.89.65-.29.44-.44,1.03-.44,1.79v13.25c0,.84.17,1.46.5,1.86.33.4.94.6,1.83.6v.35h-6.54Z" fill="#fff"/>
  <path d="M38.81,8.11h-.45c-.14-.91-.4-1.73-.79-2.44-.39-.71-.86-1.3-1.41-1.76-.55-.47-1.17-.82-1.86-1.06-.69-.24-1.42-.36-2.19-.36-1.03,0-1.93.22-2.71.65-.78.44-1.38.98-1.8,1.63-.5.82-.86,1.73-1.06,2.72-.21.99-.31,2.06-.31,3.19,0,2.05.36,3.69,1.08,4.92.72,1.23,1.58,2.09,2.6,2.57,1.01.48,2.01.73,2.99.73,2.38,0,4.43-1.16,6.18-3.49v1.73c-.57.67-1.19,1.26-1.85,1.77-.66.51-1.48.94-2.46,1.28-.98.34-2.13.51-3.45.51-1.55,0-2.94-.26-4.16-.79-1.22-.52-2.23-1.23-3.03-2.12-.8-.89-1.41-1.91-1.82-3.05-.41-1.15-.61-2.32-.61-3.54,0-1.04.13-2.01.4-2.91.26-.9.62-1.69,1.08-2.39.45-.7.99-1.34,1.61-1.94,1.07-.97,2.18-1.64,3.33-1.99,1.15-.35,2.4-.53,3.73-.53s2.75.22,4.31.65c.55.13.95.19,1.2.19.47,0,.83-.31,1.08-.92h.37v6.74Z" fill="#fff"/>
  <path d="M20.83,28.48h-.45c-.14-.92-.4-1.73-.79-2.44-.39-.71-.86-1.29-1.41-1.76-.55-.46-1.17-.82-1.86-1.06-.69-.24-1.42-.36-2.19-.36-1.02,0-1.93.22-2.71.65-.78.44-1.38.98-1.8,1.63-.5.82-.86,1.73-1.06,2.72-.21.99-.31,2.06-.31,3.19,0,2.05.36,3.69,1.08,4.92.72,1.23,1.58,2.09,2.6,2.57,1.01.48,2.01.72,2.99.72,2.38,0,4.43-1.16,6.18-3.49v1.73c-.57.67-1.19,1.26-1.85,1.77-.66.51-1.48.94-2.46,1.28-.98.34-2.13.51-3.45.51-1.55,0-2.94-.26-4.16-.79-1.22-.53-2.23-1.23-3.03-2.12-.8-.89-1.41-1.91-1.82-3.05-.41-1.15-.61-2.32-.61-3.54,0-1.05.13-2.01.4-2.91.26-.9.62-1.69,1.08-2.39.45-.7.99-1.34,1.61-1.94,1.07-.97,2.18-1.64,3.33-1.99,1.15-.35,2.4-.53,3.73-.53s2.75.22,4.31.65c.55.13.95.19,1.2.19.47,0,.83-.31,1.08-.92h.37v6.74Z" fill="#fff"/>
  <path d="M31.79,21.82l6.34,16.33c.34.84.74,1.41,1.21,1.72.46.31,1.03.52,1.7.63v.37h-8.95v-.37c1.22-.07,1.83-.45,1.83-1.15,0-.11-.02-.27-.06-.47-.04-.2-.09-.42-.15-.64-.06-.23-.1-.37-.12-.42l-1.58-4.01h-5.64l-1.35,3.86c-.17.46-.26.88-.26,1.26,0,.58.17.97.51,1.17.34.2.75.33,1.22.4v.37h-5.67v-.37c.59-.06,1.14-.33,1.65-.83.51-.49,1.01-1.4,1.49-2.71l5.36-15.15h2.45ZM26.81,32.56h4.71l-2.44-6.36-2.27,6.36Z" fill="#fff"/>
</svg>